<svg id="visual" viewBox="0 0 1920 1080" width="1920" height="1080" xmlns="http://www.w3.org/2000/svg" xmlns:xlink="http://www.w3.org/1999/xlink" version="1.1"><rect x="0" y="0" width="1920" height="1080" fill="#fff"></rect><path d="M0 859L40 869.3C80 879.7 160 900.3 240 896.5C320 892.7 400 864.3 480 845.8C560 827.3 640 818.7 720 811.3C800 804 880 798 960 811.3C1040 824.7 1120 857.3 1200 867.5C1280 877.7 1360 865.3 1440 848.8C1520 832.3 1600 811.7 1680 782.3C1760 753 1840 715 1880 696L1920 677L1920 1081L1880 1081C1840 1081 1760 1081 1680 1081C1600 1081 1520 1081 1440 1081C1360 1081 1280 1081 1200 1081C1120 1081 1040 1081 960 1081C880 1081 800 1081 720 1081C640 1081 560 1081 480 1081C400 1081 320 1081 240 1081C160 1081 80 1081 40 1081L0 1081Z" fill="#0066FF" stroke-linecap="round" stroke-linejoin="miter"></path></svg>