<svg xmlns="http://www.w3.org/2000/svg" viewBox="0 0 854.55 625.16"><defs><style>.cls-1,.cls-10,.cls-11,.cls-8{fill:#1d1750;}.cls-2{fill:#5473b8;}.cls-3{fill:#394fa2;}.cls-4{fill:#253c97;}.cls-5{fill:#395aa9;}.cls-6{fill:#b9cce9;}.cls-7{fill:#e5e9f6;}.cls-8{font-size:54.22px;}.cls-10,.cls-11,.cls-8{font-family:Anton-Regular, Anton;}.cls-9{fill:#fff;opacity:0.24;}.cls-10{font-size:128.17px;}.cls-11{font-size:98.23px;}</style></defs><g id="Layer_2" data-name="Layer 2"><g id="Layer_1-2" data-name="Layer 1"><path class="cls-1" d="M785.86,59.64V41.23H774.4a39.62,39.62,0,0,0-4.76-11.69l8.16-8.17-13-13-8.1,8.1A39.6,39.6,0,0,0,745,11.56V0H726.63V11.46a39.62,39.62,0,0,0-11.69,4.76l-8.17-8.16-13,13,8.1,8.1A39.65,39.65,0,0,0,697,40.81H685.4V59.23h11.46a39.73,39.73,0,0,0,4.76,11.69l-8.16,8.17,13,13,8.1-8.1a39.65,39.65,0,0,0,11.63,4.89v11.56h18.42V89a39.09,39.09,0,0,0,11.69-4.76l8.17,8.17,13-13-8.1-8.11a39.43,39.43,0,0,0,4.89-11.63Zm-50.23,8.29a17.7,17.7,0,1,1,17.7-17.7A17.7,17.7,0,0,1,735.63,67.93Z"/><path class="cls-1" d="M854.55,116.13v-14.5h-9a31.16,31.16,0,0,0-3.75-9.21L848.21,86,838,75.74l-6.38,6.38a31.35,31.35,0,0,0-9.16-3.85v-9.1h-14.5v9a31,31,0,0,0-9.2,3.75l-6.44-6.43L782,85.76l6.38,6.38a31.35,31.35,0,0,0-3.85,9.16h-9.1v14.5h9a31,31,0,0,0,3.74,9.2l-6.43,6.43,10.26,10.26,6.38-6.38a31.29,31.29,0,0,0,9.15,3.85v9.1H822.1v-9a31.19,31.19,0,0,0,9.2-3.74l6.43,6.43L848,131.66l-6.38-6.38a31,31,0,0,0,3.85-9.15ZM815,122.65a13.94,13.94,0,1,1,13.93-13.94A13.94,13.94,0,0,1,815,122.65Z"/><path class="cls-1" d="M775.17,149.67V139.39h-6.4a21.9,21.9,0,0,0-2.66-6.53l4.57-4.56L763.4,121l-4.53,4.53a21.81,21.81,0,0,0-6.49-2.73v-6.46H742.09v6.4a22.16,22.16,0,0,0-6.53,2.66L731,120.86l-7.28,7.27,4.53,4.53a21.87,21.87,0,0,0-2.73,6.5h-6.46v10.28h6.4a22.16,22.16,0,0,0,2.66,6.53l-4.56,4.57,7.27,7.27,4.53-4.53a22.16,22.16,0,0,0,6.5,2.74v6.45h10.29v-6.4a22,22,0,0,0,6.53-2.66l4.56,4.56,7.27-7.27L766,156.17a22.29,22.29,0,0,0,2.73-6.5Zm-28,4.63a9.89,9.89,0,1,1,9.89-9.88A9.88,9.88,0,0,1,747.12,154.3Z"/><rect class="cls-2" x="55.72" y="597.14" width="748.03" height="28.01"/><polygon class="cls-3" points="708.73 497.96 150.73 497.96 55.72 597.14 803.74 597.14 708.73 497.96"/><ellipse class="cls-4" cx="426.28" cy="549.41" rx="276.04" ry="25.84"/><polygon class="cls-5" points="370.98 458.75 359.08 541.3 500.38 541.3 486.99 458.75 370.98 458.75"/><rect class="cls-5" x="310" y="553.2" width="239.46" height="5.95"/><polygon class="cls-2" points="359.08 541.3 310 553.2 549.46 553.2 500.38 541.3 359.08 541.3"/><path class="cls-1" d="M166.37,107.07H693.09a12.68,12.68,0,0,1,12.68,12.68v296.5a0,0,0,0,1,0,0H153.69a0,0,0,0,1,0,0V119.75A12.68,12.68,0,0,1,166.37,107.07Z"/><path class="cls-2" d="M153.69,416.25H705.77a0,0,0,0,1,0,0v40.29a12.63,12.63,0,0,1-12.63,12.63H166.32a12.63,12.63,0,0,1-12.63-12.63V416.25A0,0,0,0,1,153.69,416.25Z"/><rect class="cls-6" x="174.06" y="124.92" width="511.34" height="272.18"/><path class="cls-1" d="M440.51,440.6a10.78,10.78,0,1,1-10.78-10.78A10.79,10.79,0,0,1,440.51,440.6Z"/><rect class="cls-2" x="254.67" y="155.98" width="181.07" height="211.35"/><rect class="cls-7" x="280.84" y="184.8" width="128.73" height="11.53"/><rect class="cls-7" x="280.84" y="205.94" width="128.73" height="11.53"/><rect class="cls-7" x="280.84" y="227.07" width="128.73" height="11.53"/><rect class="cls-7" x="280.84" y="248.21" width="128.73" height="11.53"/><rect class="cls-7" x="280.84" y="269.34" width="128.73" height="11.53"/><rect class="cls-7" x="280.84" y="290.48" width="128.73" height="11.53"/><rect class="cls-7" x="280.84" y="311.61" width="128.73" height="11.53"/><rect class="cls-7" x="280.84" y="332.75" width="128.73" height="11.53"/><text class="cls-8" transform="translate(484.3 205.94)">EASY.CSS</text><polygon class="cls-9" points="416.72 124.92 306.79 397.1 367.64 397.1 476.59 124.92 416.72 124.92"/><polygon class="cls-9" points="514.44 124.92 411.8 397.1 436.26 397.1 540.68 124.92 514.44 124.92"/><text class="cls-10" transform="translate(0 523.57)">&lt;/&gt;</text><text class="cls-11" transform="translate(160.97 100.46)">HTML</text><text class="cls-11" transform="translate(712.48 248.21) rotate(90)">CSS</text></g></g></svg>