<svg xmlns="http://www.w3.org/2000/svg" viewBox="0 0 773.24 770.74"><defs><style>.cls-1{fill:#fff;}.cls-2{fill:#404fa2;}</style></defs><g id="Layer_2" data-name="Layer 2"><g id="Layer_1-2" data-name="Layer 1"><path class="cls-1" d="M773.24,385.37a302.36,302.36,0,0,1-12.09,84.88C722.66,602.25,596.62,699,447.07,699c-149.37,0-275.28-96.55-313.94-228.3H524.58V300H133.13C171.79,168.25,297.7,71.7,447.07,71.7c149.19,0,275,96.32,313.81,227.82A302.83,302.83,0,0,1,773.24,385.37Z"/><path class="cls-2" d="M761.35,470.25c-38.65,172-192.31,300.49-376,300.49C172.54,770.74,0,598.2,0,385.37S172.54,0,385.37,0C568.69,0,722.12,128,761.14,299.52H722.26C687.77,168,576.05,71.7,443.55,71.7c-132.66,0-244.49,96.55-278.83,228.3H512.39V470.74H164.72C199.06,602.49,310.89,699,443.55,699c132.82,0,244.77-96.79,279-228.79Z"/></g></g></svg>